HIERARCHY
ROOT Hips
{
	OFFSET -0.001795 -0.223333 0.028219
	CHANNELS 6 Xposition Yposition Zposition Zrotation Yrotation Xrotation 
	JOINT LeftUpLeg
	{
		OFFSET 0.069520 -0.091406 -0.006815
		CHANNELS 3 Zrotation Yrotation Xrotation
		JOINT LeftLeg
		{
			OFFSET 0.034277 -0.375199 -0.004496
			CHANNELS 3 Zrotation Yrotation Xrotation
			JOINT LeftFoot
			{
				OFFSET -0.013596 -0.397961 -0.043693
				CHANNELS 3 Zrotation Yrotation Xrotation
				JOINT LeftToe
				{
					OFFSET 0.026358 -0.055791 0.119288
					CHANNELS 3 Zrotation Yrotation Xrotation
					End Site
					{
						OFFSET 0.000000 0.000000 0.000000
					}
				}
			}
		}
	}
	JOINT RightUpLeg
	{
		OFFSET -0.067670 -0.090522 -0.004320
		CHANNELS 3 Zrotation Yrotation Xrotation
		JOINT RightLeg
		{
			OFFSET -0.038290 -0.382569 -0.008850
			CHANNELS 3 Zrotation Yrotation Xrotation
			JOINT RightFoot
			{
				OFFSET 0.015774 -0.398415 -0.042312
				CHANNELS 3 Zrotation Yrotation Xrotation
				JOINT RightToe
				{
					OFFSET -0.025372 -0.048144 0.123348
					CHANNELS 3 Zrotation Yrotation Xrotation
					End Site
					{
						OFFSET 0.000000 0.000000 0.000000
					}
				}
			}
		}
	}
	JOINT Spine
	{
		OFFSET -0.002533 0.108963 -0.026696
		CHANNELS 3 Zrotation Yrotation Xrotation
		JOINT Spine1
		{
			OFFSET 0.005487 0.135180 0.001092
			CHANNELS 3 Zrotation Yrotation Xrotation
			JOINT Spine2
			{
				OFFSET 0.001457 0.052922 0.025425
				CHANNELS 3 Zrotation Yrotation Xrotation
				JOINT Neck
				{
					OFFSET -0.002778 0.213870 -0.042857
					CHANNELS 3 Zrotation Yrotation Xrotation
					JOINT Head
					{
						OFFSET 0.005152 0.064970 0.051349
						CHANNELS 3 Zrotation Yrotation Xrotation
						End Site
						{
							OFFSET 0.000000 0.000000 0.000000
						}
					}
				}
				JOINT LeftShoulder
				{
					OFFSET 0.078845 0.121749 -0.034090
					CHANNELS 3 Zrotation Yrotation Xrotation
					JOINT LeftArm
					{
						OFFSET 0.090977 0.030469 -0.008868
						CHANNELS 3 Zrotation Yrotation Xrotation
						JOINT LeftForeArm
						{
							OFFSET 0.259612 -0.012772 -0.027456
							CHANNELS 3 Zrotation Yrotation Xrotation
							JOINT LeftHand
							{
								OFFSET 0.249234 0.008986 -0.001171
								CHANNELS 3 Zrotation Yrotation Xrotation
								End Site
								{
									OFFSET 0.000000 0.000000 0.000000
								}
							}
						}
					}
				}
				JOINT RightShoulder
				{
					OFFSET -0.081759 0.118833 -0.038615
					CHANNELS 3 Zrotation Yrotation Xrotation
					JOINT RightArm
					{
						OFFSET -0.096012 0.032551 -0.009143
						CHANNELS 3 Zrotation Yrotation Xrotation
						JOINT RightForeArm
						{
							OFFSET -0.253742 -0.013329 -0.021401
							CHANNELS 3 Zrotation Yrotation Xrotation
							JOINT RightHand
							{
								OFFSET -0.255298 0.007772 -0.005559
								CHANNELS 3 Zrotation Yrotation Xrotation
								End Site
								{
									OFFSET 0.000000 0.000000 0.000000
								}
							}
						}
					}
				}
			}
		}
	}
}
MOTION
Frames: 10
Frame Time: 0.050000
0.049969 0.944126 -0.082025 3.322448 -22.862827 17.496013 6.399897 0.487669 -26.416219 -3.890479 1.462727 15.981879 9.064992 17.261223 9.700992 0.000000 0.000000 0.000000 -12.731886 3.168488 -34.615332 -3.552256 2.185627 17.570765 6.601881 8.969623 8.571561 0.000000 0.000000 0.000000 8.710031 -1.504311 11.108921 3.729054 -1.447622 -1.677982 -9.306460 4.719489 10.669190 16.351950 -11.367610 -8.287095 0.000000 0.000000 0.000000 23.450525 -11.919520 2.086937 -81.563706 -46.639781 32.979964 140.105639 -26.007838 -51.873688 0.000000 0.000000 0.000000 -22.052935 -1.851850 2.483503 92.875668 42.366106 27.454805 -140.407507 41.935329 -83.248280 0.000000 0.000000 0.000000 
0.046644 0.947655 -0.079900 2.544052 -23.637339 17.100772 6.639964 0.462043 -24.461215 -2.662226 1.049157 14.836504 8.872058 16.795562 10.092408 0.000000 0.000000 0.000000 -11.468219 3.337889 -33.661838 -4.476798 2.208238 16.121870 7.735116 9.710573 10.366642 0.000000 0.000000 0.000000 8.748732 -1.412772 10.135310 4.425216 -1.728894 -2.156097 -9.505524 -0.512198 11.176748 14.719712 -10.618838 -7.089421 0.000000 0.000000 0.000000 25.614218 -11.640490 0.877495 -81.478733 -46.423123 36.510999 137.454011 -20.322959 -35.491591 0.000000 0.000000 0.000000 -20.650409 -4.123368 3.090854 91.616676 39.460300 19.208373 -148.472945 46.113629 -104.263180 0.000000 0.000000 0.000000 
0.043717 0.951330 -0.077270 1.922816 -24.703105 17.420786 6.832839 0.469227 -22.911552 -1.965716 0.805493 13.549628 9.123896 17.075462 10.470152 0.000000 0.000000 0.000000 -10.634296 3.521963 -33.182955 -5.284792 2.186249 14.692568 8.698737 11.094876 11.043489 0.000000 0.000000 0.000000 8.704559 -1.290771 8.709344 4.458283 -1.734702 -3.536322 -9.457774 -3.150738 12.379411 12.875754 -9.691745 -5.698401 0.000000 0.000000 0.000000 27.138551 -10.189736 -0.193569 -82.536783 -46.554653 39.922328 135.594882 -16.220897 -24.424513 0.000000 0.000000 0.000000 -20.107312 -6.704269 3.235579 90.444901 35.301828 11.782589 -154.471006 46.965625 -116.967035 0.000000 0.000000 0.000000 
0.041324 0.952879 -0.075306 2.096131 -24.054869 17.435387 6.764903 0.320081 -21.918365 -1.782082 0.654268 12.324916 9.546093 17.718853 11.526530 0.000000 0.000000 0.000000 -11.042368 3.288251 -32.402112 -5.010533 1.983687 13.819118 8.091367 10.234987 10.497215 0.000000 0.000000 0.000000 8.834540 -1.223993 7.500285 4.489037 -1.745573 -3.446585 -9.619344 -4.493478 11.820855 13.091828 -9.997163 -4.084568 0.000000 0.000000 0.000000 27.250506 -9.575252 -0.378369 -82.770795 -46.909419 41.107845 134.963176 -15.436273 -22.445971 0.000000 0.000000 0.000000 -20.888446 -8.872599 3.260218 90.229632 32.441384 8.244446 -157.273825 45.799300 -120.712239 0.000000 0.000000 0.000000 
0.040267 0.952593 -0.074947 2.209744 -23.500345 17.533947 7.044686 0.283472 -21.278843 -1.180191 0.422784 11.256570 8.633329 16.288206 11.080080 0.000000 0.000000 0.000000 -11.078217 3.147572 -31.806797 -5.221883 1.924502 13.195959 7.121400 8.643029 9.800921 0.000000 0.000000 0.000000 9.349023 -1.262495 7.209826 4.180679 -1.626526 -4.062782 -9.809843 -3.220852 11.652820 14.699467 -11.213123 -3.656830 0.000000 0.000000 0.000000 25.891283 -9.149157 -0.041167 -82.561108 -47.097157 39.974756 135.976407 -17.715886 -28.161782 0.000000 0.000000 0.000000 -20.760811 -9.529187 2.826444 89.788078 32.454260 9.413218 -153.740045 43.944479 -111.049156 0.000000 0.000000 0.000000 
0.040749 0.950033 -0.076473 2.846923 -23.454383 17.559201 6.977885 0.287160 -21.543066 -1.727378 0.585688 11.733372 9.364549 17.487462 11.547094 0.000000 0.000000 0.000000 -12.330034 3.130843 -33.155756 -4.622331 2.009304 14.625126 6.638218 8.484184 8.909508 0.000000 0.000000 0.000000 9.798787 -1.307566 7.237099 3.741510 -1.458973 -4.484515 -10.003826 0.209978 11.508436 17.022372 -12.554294 -5.680165 0.000000 0.000000 0.000000 23.535737 -8.268840 0.573762 -82.083321 -45.342052 35.504722 138.202742 -20.348213 -36.423655 0.000000 0.000000 0.000000 -20.796183 -9.245432 2.222454 89.562635 34.310028 13.746464 -148.662923 41.211411 -96.930199 0.000000 0.000000 0.000000 
0.042323 0.946439 -0.078768 3.186247 -23.146948 17.428575 7.589035 0.419210 -21.739218 -3.083050 0.976465 12.365244 10.208688 19.082270 10.902847 0.000000 0.000000 0.000000 -13.673176 3.029186 -34.308443 -2.982886 1.886998 16.330961 5.490122 6.487573 8.252677 0.000000 0.000000 0.000000 9.897519 -1.363436 7.734207 3.576949 -1.395715 -4.434865 -10.070360 2.579492 11.438610 18.938774 -13.263821 -8.466578 0.000000 0.000000 0.000000 21.246650 -8.673286 1.213649 -84.131230 -44.452646 34.005322 140.673763 -24.397115 -48.145023 0.000000 0.000000 0.000000 -20.663880 -7.656956 1.942314 91.263040 38.001120 19.930449 -145.123365 40.253195 -88.609403 0.000000 0.000000 0.000000 
0.044013 0.946216 -0.080573 2.745395 -25.037210 17.506766 8.170634 0.616221 -20.925328 -4.066620 1.283284 11.903937 10.817755 19.963960 10.907463 0.000000 0.000000 0.000000 -12.921179 3.491802 -35.328199 -3.693434 2.116459 16.527176 6.076263 8.264707 7.769499 0.000000 0.000000 0.000000 9.894465 -1.399512 8.499245 3.345396 -1.307754 -4.072024 -9.951798 5.220082 10.889939 19.386347 -13.322294 -9.242568 0.000000 0.000000 0.000000 21.396619 -8.009637 1.350255 -87.355393 -41.806300 32.290184 144.476147 -26.368467 -57.944890 0.000000 0.000000 0.000000 -21.241795 -6.310531 1.946785 93.645532 40.378651 24.680748 -143.304193 40.171042 -85.022500 0.000000 0.000000 0.000000 
0.045343 0.948222 -0.081207 2.457764 -27.367127 18.036279 7.789619 0.636542 -20.295851 -3.863406 1.235843 10.954621 11.845731 21.165809 12.313403 0.000000 0.000000 0.000000 -12.530671 3.975154 -36.207072 -4.147908 2.204038 16.142318 6.898836 9.625531 8.281774 0.000000 0.000000 0.000000 9.963046 -1.336610 8.004873 3.198445 -1.230047 -3.248017 -10.254725 4.859298 10.648179 19.194836 -12.782028 -10.814748 0.000000 0.000000 0.000000 23.007236 -7.706139 0.949098 -88.024054 -39.465754 31.533048 145.832164 -25.228335 -57.160724 0.000000 0.000000 0.000000 -21.335611 -5.813904 2.361771 93.791394 42.492613 25.684963 -145.593047 40.137607 -89.072450 0.000000 0.000000 0.000000 
0.046474 0.950936 -0.080858 1.553759 -29.450495 18.621226 7.455510 0.610233 -19.382600 -3.268354 1.078071 10.122122 13.444617 23.042403 14.429069 0.000000 0.000000 0.000000 -11.246351 4.448946 -36.276810 -5.060958 2.270035 15.115243 7.971169 10.258529 9.905905 0.000000 0.000000 0.000000 10.307438 -1.338614 7.964333 3.412677 -1.320827 -4.189151 -9.874104 1.735322 11.359707 17.745252 -11.598794 -12.448272 0.000000 0.000000 0.000000 24.053926 -8.040790 0.143281 -88.037756 -37.075108 32.367940 145.844337 -23.294556 -51.317667 0.000000 0.000000 0.000000 -21.592118 -5.828455 3.309179 94.457779 44.344230 23.994228 -148.701775 41.895818 -97.973164 0.000000 0.000000 0.000000 
